# xmcd CD database file
#
# Track frame offsets:
#	182
#	19827
#	30962
#	44592
#	58610
#	77180
#	88882
#	106460
#	118492
#	130080
#	145732
#	161060
#	182010
#	193242
#	210185
#
# Disc length: 2980 seconds
#
# Revision: 4
# Processed by: cddbd v1.5.2PL0 Copyright (c) Steve Scherf et al.
# Submitted via: CDex 1.60beta1
#
DISCID=d30ba20f
DTITLE=Balfa Toujours - Pop, tu me parles toujours
DYEAR=1993
DGENRE=Cajun
TTITLE0=Pop, tu me parles toujours - L'Anse aux Pailles
TTITLE1=L'Anse aux Pailles
TTITLE2=La Valse des Balfa
TTITLE3=Tow Truck Blues
TTITLE4=Tu m'as fait t'aimer
TTITLE5=Hip et Taiau
TTITLE6=C'est tout perdu
TTITLE7=Two-step a Tina
TTITLE8=Two-step des vieux hommes
TTITLE9=Je vas jamais t'embrasser encore
TTITLE10=Cajun Hot Shoes
TTITLE11=Dans le coeur de Basile
TTITLE12=Tu peux cogner
TTITLE13=Ayou est l'amour
TTITLE14=T'en as eu, t'en auras plus
EXTD=YEAR: 1993
EXTT0=
EXTT1=
EXTT2=
EXTT3=
EXTT4=
EXTT5=
EXTT6=
EXTT7=
EXTT8=
EXTT9=
EXTT10=
EXTT11=
EXTT12=
EXTT13=
EXTT14=
PLAYORDER=
